<?xml version="1.0" encoding="UTF-8"?>
<svg id="Camada_1" xmlns="http://www.w3.org/2000/svg" version="1.1" xmlns:xlink="http://www.w3.org/1999/xlink" viewBox="0 0 1080 1080">
  <!-- Generator: Adobe Illustrator 30.1.0, SVG Export Plug-In . SVG Version: 2.1.1 Build 136)  -->
  <defs>
    <style>
      .st0 {
        fill: url(#Gradiente_sem_nome_347);
      }

      .st1 {
        fill: url(#Gradiente_sem_nome_341);
      }

      .st2 {
        fill: url(#Gradiente_sem_nome_345);
      }

      .st3 {
        fill: url(#Gradiente_sem_nome_342);
      }

      .st4 {
        fill: url(#Gradiente_sem_nome_344);
      }

      .st5 {
        fill: url(#Gradiente_sem_nome_34);
      }

      .st6 {
        fill: url(#Gradiente_sem_nome_346);
      }

      .st7 {
        fill: url(#Gradiente_sem_nome_343);
      }

      .st8 {
        fill: url(#Gradiente_sem_nome_349);
      }

      .st9 {
        fill: url(#Gradiente_sem_nome_348);
      }
    </style>
    <radialGradient id="Gradiente_sem_nome_34" data-name="Gradiente sem nome 34" cx="604.33" cy="265.9" fx="604.33" fy="265.9" r="645.15" gradientUnits="userSpaceOnUse">
      <stop offset=".02" stop-color="#5277ff"/>
      <stop offset=".18" stop-color="#4e73fc"/>
      <stop offset=".32" stop-color="#4467f5"/>
      <stop offset=".47" stop-color="#3454e9"/>
      <stop offset=".55" stop-color="#2746e0"/>
    </radialGradient>
    <radialGradient id="Gradiente_sem_nome_341" data-name="Gradiente sem nome 34" cx="102.07" cy="672.86" fx="102.07" fy="672.86" r="970.56" xlink:href="#Gradiente_sem_nome_34"/>
    <radialGradient id="Gradiente_sem_nome_342" data-name="Gradiente sem nome 34" cx="102.07" cy="672.86" fx="102.07" fy="672.86" r="970.56" xlink:href="#Gradiente_sem_nome_34"/>
    <radialGradient id="Gradiente_sem_nome_343" data-name="Gradiente sem nome 34" cx="102.07" cy="672.86" fx="102.07" fy="672.86" r="970.56" xlink:href="#Gradiente_sem_nome_34"/>
    <radialGradient id="Gradiente_sem_nome_344" data-name="Gradiente sem nome 34" cx="102.07" cy="672.86" fx="102.07" fy="672.86" r="970.56" xlink:href="#Gradiente_sem_nome_34"/>
    <radialGradient id="Gradiente_sem_nome_345" data-name="Gradiente sem nome 34" cx="102.07" cy="672.86" fx="102.07" fy="672.86" r="970.56" xlink:href="#Gradiente_sem_nome_34"/>
    <radialGradient id="Gradiente_sem_nome_346" data-name="Gradiente sem nome 34" cx="102.07" cy="672.86" fx="102.07" fy="672.86" r="970.56" xlink:href="#Gradiente_sem_nome_34"/>
    <radialGradient id="Gradiente_sem_nome_347" data-name="Gradiente sem nome 34" cx="102.07" cy="672.86" fx="102.07" fy="672.86" r="970.56" xlink:href="#Gradiente_sem_nome_34"/>
    <radialGradient id="Gradiente_sem_nome_348" data-name="Gradiente sem nome 34" cx="102.07" cy="672.86" fx="102.07" fy="672.86" r="970.56" xlink:href="#Gradiente_sem_nome_34"/>
    <radialGradient id="Gradiente_sem_nome_349" data-name="Gradiente sem nome 34" cx="102.07" cy="672.86" fx="102.07" fy="672.86" r="970.56" xlink:href="#Gradiente_sem_nome_34"/>
  </defs>
  <path class="st5" d="M670.11,196.35c-13.02-13.02-27.4-24.07-42.64-33.08-2.34-1.42-4.69-2.78-7.1-4.07-2.41-1.36-4.81-2.59-7.28-3.83-7.34-3.7-14.93-7.03-22.77-9.87-1.67-.62-3.33-1.17-5-1.79-1.67-.56-3.39-1.11-5.06-1.6-1.73-.56-3.46-1.05-5.18-1.54-6.05-1.73-12.22-3.21-18.45-4.38-1.48-.31-3.02-.56-4.57-.8-1.11-.25-2.28-.43-3.39-.56-1.48-.25-2.96-.43-4.44-.68-9.38-1.23-18.94-1.85-28.69-1.85s-19.19.62-28.51,1.85c-1.54.19-3.09.43-4.63.68-9.01,1.36-17.83,3.27-26.47,5.74-3.39.99-6.85,2.04-10.18,3.15-1.67.62-3.39,1.17-5.06,1.79-10.43,3.83-20.43,8.39-30.05,13.7-2.41,1.3-4.75,2.65-7.1,4.07-15.18,8.95-29.5,19.99-42.58,33.08-68.87,68.81-83.86,174.94-36.84,260.16l102.07,185c38.81,70.29,139.89,70.29,178.65,0l102.07-185c18.33-33.2,27.28-69.48,27.28-105.58,0-56.59-21.97-112.56-64.05-154.58ZM347.93,374.07h51.03c51.03,0,92.32,41.35,92.32,92.32v51.09c-74.11-10.61-132.8-69.24-143.35-143.41ZM485.48,349.88c0-10,4.88-18.82,12.4-24.19,4.94-3.64,11.05-5.8,17.59-5.8s12.65,2.16,17.59,5.8c7.59,5.37,12.47,14.19,12.47,24.19,0,16.6-13.45,30.05-30.05,30.05s-29.99-13.45-29.99-30.05ZM539.72,517.48v-51.09c0-50.97,41.34-92.32,92.32-92.32h51.1c-10.61,74.17-69.24,132.8-143.41,143.41ZM515.53,180.55c85.28,0,155.88,63.07,167.6,145.14h-68.25c-18.39,0-35.3-8.64-47.58-22.28-12.71-14.19-31.22-23.14-51.84-23.14s-39,8.95-51.71,23.14c-12.28,13.64-29.19,22.28-47.58,22.28h-68.25c11.72-82.07,82.26-145.14,167.6-145.14Z"/>
  <g>
    <path class="st1" d="M149.49,776.27h28.47v51.35h52.97v-51.35h28.47v131.66h-28.47v-56.98h-52.97v56.98h-28.47v-131.66Z"/>
    <path class="st3" d="M365.38,882.39c0,9.41.76,23.16,1.34,25.54h-26.15c-.76-1.96-1.34-7.17-1.38-9.66-3.58,5.55-10.3,11.95-27.79,11.95-23.83,0-33.89-15.67-33.89-31,0-22.52,18.08-32.91,47.06-32.91h14.11v-6.04c0-7.03-2.53-13.94-15.22-13.94-11.55,0-14.08,4.91-15.34,12.07h-26.02c1.48-17.56,12.35-31.78,42.4-31.61,26.48.17,40.89,10.51,40.89,34.04v41.56ZM338.71,862.94h-11.15c-16.49,0-22.61,5.03-22.61,14.56,0,7.16,4.39,13.18,14.23,13.18,17.39,0,19.53-12.09,19.53-25.15v-2.6Z"/>
    <path class="st7" d="M390.15,768.53h27.37v51.05c4.08-6.35,12.26-12.79,28.29-12.79,26.91,0,40.33,22.22,40.33,49.95s-14.56,53.48-42.98,53.48c-14.7,0-21.17-4.48-25.97-11.66,0,3.25-.53,6.87-1.05,9.37h-26.17c.19-10.72.19-21.6.19-32.32v-107.08ZM458.36,857.27c0-16.47-6.12-28.56-20.9-28.56-15.63,0-21.18,10.18-21.18,30.32,0,16.65,4.93,29.44,20.87,29.44,13.91,0,21.21-12.51,21.21-31.2Z"/>
    <path class="st4" d="M504.92,768.53h27.37v24.41h-27.37v-24.41ZM504.92,809.09h27.37v98.85h-27.37v-98.85Z"/>
    <path class="st2" d="M556.86,907.93v-139.4h27.37v139.4h-27.37Z"/>
    <path class="st6" d="M608.8,768.53h27.37v24.41h-27.37v-24.41ZM608.8,809.09h27.37v98.85h-27.37v-98.85Z"/>
    <path class="st0" d="M651.31,809.09h15.24v-26.77h27.37v26.77h19.36v20.58h-19.36v48.78c0,7.5,2.29,10.42,10.45,10.42,1.52,0,4.19-.02,6.23-.3v18.83c-5.43,1.84-12.87,1.89-18.4,1.89-19.28,0-25.65-10.31-25.65-27.61v-52h-15.24v-20.58Z"/>
    <path class="st9" d="M733.64,776.27h91.9v23.33h-64.1v32.26h60.05v23.33h-60.05v52.73h-27.8v-131.66Z"/>
    <path class="st8" d="M862.66,809.09c10.21,34.11,19.12,64.54,20.68,73.68h.19c2.14-9.97,7.93-32.12,19.73-73.68h27.25l-33.21,101.7c-9.45,28.43-17.33,36.92-41.08,36.92-2.43,0-8.08-.19-12.82-.74v-21.99c1.86.21,4.87.4,7.08.4,10.05,0,15.12-3.49,18.82-14.42l-35.97-101.87h29.33Z"/>
  </g>
</svg>